<?xml version="1.0" encoding="UTF-8"?>
<!-- Generated by Pixelmator Pro 3.7 -->
<svg width="514" height="514" viewBox="0 0 514 514" xmlns="http://www.w3.org/2000/svg">
    <style>
        /* Theme-aware styling for automatic dark/light mode switching */
        @media (prefers-color-scheme: dark) {
            .theme-aware {
                filter: invert(1);
            }
        }
        /* VitePress dark mode class */
        :root.dark .theme-aware {
            filter: invert(1);
        }
    </style>
    <g class="theme-aware">
        <path id="border" fill="#333333" fill-rule="evenodd" stroke="none" d="M 7.3752 487.431061 C 1 476.047333 1 460.864868 1 430.5 L 0.999999 83.5 C 0.999999 53.135132 0.999999 37.952667 7.375199 26.568939 C 11.880833 18.52356 18.52355 11.880859 26.568937 7.375214 C 37.952675 1 53.135117 1 83.5 1 L 430.5 1 C 460.864868 1 476.047333 1 487.431061 7.375214 C 495.47644 11.880829 502.119141 18.52356 506.624786 26.568939 C 513 37.952667 513 53.135132 513 83.5 L 513 430.5 C 513 460.864868 513 476.047333 506.624786 487.431061 C 502.119171 495.47644 495.47644 502.119171 487.431061 506.624786 C 476.047333 513 460.864868 513 430.5 513 L 83.5 513 C 53.135117 513 37.952675 513 26.568937 506.624786 C 18.52355 502.119171 11.880834 495.47644 7.3752 487.431061 Z M 21 430.5 L 21 83.5 C 21 49.899178 21.706236 41.910526 24.825115 36.34137 C 27.52849 31.514153 31.514122 27.528524 36.341381 24.825123 C 41.910542 21.706238 49.899174 21 83.5 21 L 430.5 21 C 464.10083 21 472.089478 21.706238 477.6586 24.825121 C 482.48584 27.528492 486.471466 31.514124 489.174896 36.341393 C 492.293762 41.910534 493 49.899181 493 83.5 L 493 430.5 C 493 464.10083 492.293762 472.089478 489.174866 477.6586 C 486.471497 482.48587 482.48587 486.471497 477.658661 489.174866 C 472.089478 492.293762 464.10083 493 430.5 493 L 83.5 493 C 49.899174 493 41.910542 492.293762 36.341377 489.174866 C 31.514133 486.471497 27.528503 482.48587 24.825115 477.65863 C 21.706238 472.089478 21 464.10083 21 430.5 Z"/>
        <path id="Body" fill="#333333" fill-rule="evenodd" stroke="none" d="M 45.825119 456.65863 C 42 449.8284 42 440.718933 42 422.5 L 42 91.5 C 42 73.281067 42 64.1716 45.825119 57.34137 C 48.5285 52.51413 52.51413 48.528503 57.341362 45.825134 C 64.171608 42 73.281067 42 91.5 42 L 422.5 42 C 440.718933 42 449.8284 42 456.65863 45.825134 C 461.48587 48.528503 465.471497 52.51413 468.174866 57.34137 C 472 64.1716 472 73.281067 472 91.5 L 472 422.5 C 472 440.718933 472 449.8284 468.174866 456.65863 C 465.471497 461.48587 461.48587 465.471497 456.65863 468.174866 C 449.8284 472 440.718933 472 422.5 472 L 91.5 472 C 73.281067 472 64.171608 472 57.341362 468.174866 C 52.51413 465.471497 48.5285 461.48587 45.825119 456.65863 Z M 319 427.350677 C 321.475006 427.575104 327.549988 427.56189 332.5 427.32132 C 337.450012 427.08075 344.266724 426.45871 347.648285 425.939026 C 351.029816 425.419312 357.634369 423.881958 362.325043 422.522675 C 367.015686 421.163361 374.69989 418.223785 379.401062 415.990265 C 384.102234 413.756744 391.192535 409.72348 395.157318 407.027435 C 399.122101 404.33139 405.632599 399.166962 409.625122 395.550964 C 413.617645 391.934937 419.839996 385.044189 423.452515 380.23819 C 427.065063 375.43219 431.79953 368.088135 433.973572 363.918091 C 436.147614 359.748016 439.292938 352.629822 440.963196 348.099854 C 442.633423 343.569885 444 338.073792 444 335.886322 C 444 333.051788 443.328888 331.237976 441.664124 329.573212 C 440.379395 328.288483 436.891907 326.541138 433.914124 325.690216 C 430.936371 324.839294 407.125 318.393494 381 311.366211 C 354.875 304.338959 331.384033 298.414795 328.797821 298.201416 C 324.853729 297.875977 323.704041 298.205048 321.666504 300.242584 C 320.330475 301.578613 318.537292 305.108093 317.681702 308.085876 C 316.82608 311.06366 310.386139 334.875 303.370667 361 C 296.355194 387.125 290.425232 410.232819 290.192993 412.350708 C 289.960754 414.468567 290.252808 417.25943 290.84201 418.552582 C 291.431213 419.845764 293.203766 421.571106 294.780975 422.386749 C 296.358215 423.202362 301.440216 424.561096 306.074341 425.406158 C 310.708466 426.251221 316.524994 427.126251 319 427.350677 Z M 184 410.904419 C 188.675003 411.420593 196.550003 411.634735 201.5 411.380219 C 206.449997 411.125732 214.29155 410.23175 218.925659 409.393585 C 223.559784 408.55545 228.641785 407.202362 230.219025 406.386749 C 231.796249 405.571106 233.568787 403.845764 234.15799 402.552582 C 234.747192 401.25943 235.039261 398.468567 234.807007 396.350708 C 234.574768 394.232819 228.644821 371.125 221.629349 345 C 214.613876 318.875 208.173904 295.06366 207.318298 292.085876 C 206.462692 289.108093 204.66954 285.578613 203.333496 284.242584 C 201.295959 282.205048 200.146255 281.875977 196.202164 282.201416 C 193.615982 282.414795 170.125 288.338959 144 295.366211 C 117.875 302.393494 94.063644 308.839294 91.085876 309.690216 C 88.108109 310.541138 84.620605 312.288483 83.335876 313.573212 C 81.67112 315.237976 81 317.051788 81 319.886322 C 81 322.073792 82.36657 327.569885 84.036819 332.099854 C 85.707062 336.629822 88.852386 343.748016 91.026428 347.918091 C 93.200462 352.088135 97.888084 359.369751 101.443375 364.099487 C 104.998657 368.829193 110.67939 375.265198 114.06723 378.401764 C 117.45507 381.5383 122.650452 385.894897 125.612526 388.08313 C 128.5746 390.271332 133.586044 393.567169 136.749054 395.407196 C 139.912079 397.247223 145.730103 400.1604 149.677994 401.88089 C 153.6259 403.60141 161.050903 406.12439 166.177994 407.487488 C 171.305099 408.850586 179.324997 410.388214 184 410.904419 Z M 374.140747 249.538544 C 387.111572 257.000366 393.266693 260 395.607147 260 C 397.595673 260 399.882629 259.113525 401.411804 257.75 C 402.799652 256.512512 405.535492 252.125 407.491425 248 C 409.447388 243.875 412.410706 236.258026 414.076599 231.073395 C 415.742493 225.888763 417.80127 217.113739 418.651642 211.573395 C 419.739471 204.486237 420.017487 198.138947 419.589478 190.162231 C 419.254913 183.926453 418.284363 175.45105 417.432709 171.327972 C 416.581055 167.204895 414.519073 159.931885 412.850525 155.165741 C 411.181946 150.399567 407.965576 143.001709 405.702972 138.725983 C 403.440399 134.450287 398.777435 127.205536 395.340851 122.626526 C 391.904236 118.047516 386.277893 111.695221 382.83783 108.510345 C 379.397766 105.325439 373.864471 100.716949 370.541595 98.269226 C 367.218719 95.821503 362.601624 92.87677 360.281372 91.725372 C 356.843475 90.019379 355.380646 89.80481 352.377197 90.565979 C 350.350159 91.079681 347.89151 92.625 346.913605 94 C 345.935669 95.375 337.688232 109.44223 328.585968 125.260498 C 319.483704 141.078796 307.043091 162.678802 300.940155 173.260498 C 290.861176 190.736206 289.889984 192.857239 290.346497 196.396759 C 290.622894 198.539948 291.670502 201.067169 292.67453 202.012756 C 293.678528 202.958344 308.327515 211.684631 325.227844 221.404541 C 342.128143 231.124451 364.138947 243.78476 374.140747 249.538544 Z M 194.298706 216.75 C 197.593704 218.537506 201.146805 220 202.194473 220 C 203.242142 220 205.316605 219.370514 206.804413 218.601135 C 208.750473 217.594788 213.505005 210.298553 223.749161 192.597931 C 231.580978 179.065552 244.402054 156.857544 252.240448 143.246796 C 262.117523 126.096069 266.603149 117.339691 266.853943 114.719849 C 267.165649 111.463684 266.729614 110.48114 263.708221 107.631622 C 261.779053 105.812164 256.422272 102.700348 251.804276 100.716492 C 247.186279 98.732605 239.553238 95.992401 234.84198 94.627136 C 230.130722 93.261871 222.806381 91.662231 218.565659 91.072418 C 214.324951 90.482574 206.950348 90.002655 202.177643 90.00589 C 197.404938 90.009125 189.225006 90.658356 184 91.448608 C 178.774994 92.238831 170.384308 94.232635 165.354019 95.879242 C 160.32373 97.525848 152.673737 100.655762 148.354019 102.834595 C 144.034302 105.013397 136.528275 109.628052 131.673935 113.089325 C 126.819603 116.550598 119.588791 122.846985 115.605469 127.081299 C 111.622139 131.315582 106.257141 137.867035 103.68325 141.640015 C 101.10936 145.412994 98.460114 149.94632 97.796043 151.714081 C 96.970436 153.911835 96.890839 155.776245 97.544327 157.61026 C 98.069946 159.085419 100.074997 161.527924 102 163.038055 C 103.925003 164.548187 124.131752 176.519897 146.9039 189.641876 C 169.676041 202.763855 191.003708 214.962494 194.298706 216.75 Z"/>
    </g>
</svg>